<?xml version="1.0" encoding="UTF-8"?>
<svg xmlns="http://www.w3.org/2000/svg" xmlns:xlink="http://www.w3.org/1999/xlink" width="306pt" height="252pt" viewBox="0 0 306 252" version="1.1">
<defs>
<clipPath id="clip1">
  <path d="M 21.488281 14.398438 L 292.601563 14.398438 L 292.601563 231.511719 L 21.488281 231.511719 Z M 21.488281 14.398438 "/>
</clipPath>
</defs>
<g id="surface37">
<rect x="0" y="0" width="306" height="252" style="fill:rgb(100%,100%,100%);fill-opacity:1;stroke:none;"/>
<g clip-path="url(#clip1)" clip-rule="nonzero">
<path style="fill-rule:nonzero;fill:rgb(0%,0%,0%);fill-opacity:1;stroke-width:1.062992;stroke-linecap:round;stroke-linejoin:round;stroke:rgb(49.803922%,49.803922%,49.803922%);stroke-opacity:1;stroke-miterlimit:10;" d="M 219.9375 134.644531 L 205.316406 137.128906 L 204.78125 136.882813 L 205.496094 134.644531 L 206.207031 132.902344 L 206.027344 130.414063 L 206.742188 129.421875 L 207.277344 127.929688 L 207.992188 125.691406 L 208.167969 124.445313 L 207.8125 123.203125 L 218.867188 120.964844 L 219.9375 120.46875 L 220.832031 119.472656 L 221.1875 119.472656 L 221.902344 119.722656 L 222.257813 120.714844 L 223.328125 120.714844 L 221.902344 124.695313 L 221.367188 125.9375 L 221.1875 127.429688 L 220.652344 128.425781 L 220.832031 128.921875 L 220.652344 130.167969 L 220.296875 131.90625 Z M 219.9375 134.644531 "/>
<path style="fill-rule:nonzero;fill:rgb(0%,0%,0%);fill-opacity:1;stroke-width:1.062992;stroke-linecap:round;stroke-linejoin:round;stroke:rgb(49.803922%,49.803922%,49.803922%);stroke-opacity:1;stroke-miterlimit:10;" d="M 82.269531 155.035156 L 79.058594 154.785156 L 79.238281 132.40625 L 87.085938 132.40625 L 87.261719 132.652344 L 93.503906 132.652344 L 93.503906 134.644531 L 97.070313 134.644531 L 97.070313 136.882813 L 96.890625 136.882813 L 96.179688 154.785156 Z M 82.269531 155.035156 "/>
<path style="fill-rule:nonzero;fill:rgb(0%,0%,0%);fill-opacity:1;stroke-width:1.062992;stroke-linecap:round;stroke-linejoin:round;stroke:rgb(49.803922%,49.803922%,49.803922%);stroke-opacity:1;stroke-miterlimit:10;" d="M 215.835938 202.535156 L 216.015625 202.285156 L 219.226563 203.28125 L 218.691406 204.027344 L 218.867188 204.523438 L 218.867188 206.015625 L 219.046875 206.515625 L 216.550781 206.761719 Z M 215.835938 202.535156 "/>
<path style="fill-rule:nonzero;fill:rgb(0%,0%,0%);fill-opacity:1;stroke-width:1.062992;stroke-linecap:round;stroke-linejoin:round;stroke:rgb(49.803922%,49.803922%,49.803922%);stroke-opacity:1;stroke-miterlimit:10;" d="M 167.332031 154.785156 L 147.714844 154.785156 L 147.714844 150.808594 L 147.539063 146.828125 L 148.25 146.828125 L 148.429688 145.832031 L 148.785156 145.832031 L 148.785156 145.085938 L 148.609375 144.839844 L 148.609375 144.339844 L 148.25 144.09375 L 148.429688 143.84375 L 148.609375 143.097656 L 148.074219 142.847656 L 148.074219 142.601563 L 147.714844 142.351563 L 147.714844 142.101563 L 148.25 142.101563 L 148.074219 141.355469 L 147.894531 141.109375 L 147.714844 140.859375 L 147.539063 140.613281 L 147.359375 140.113281 L 147.894531 139.867188 L 147.714844 139.367188 L 147.359375 139.367188 L 147.359375 137.875 L 147.003906 137.875 L 147.003906 137.128906 L 155.382813 136.882813 L 156.097656 144.09375 L 162.160156 144.339844 L 162.339844 146.332031 L 169.117188 146.332031 L 169.117188 151.554688 L 169.292969 153.046875 L 169.652344 154.785156 Z M 167.332031 154.785156 "/>
<path style="fill-rule:nonzero;fill:rgb(0%,0%,0%);fill-opacity:1;stroke-width:1.062992;stroke-linecap:round;stroke-linejoin:round;stroke:rgb(49.803922%,49.803922%,49.803922%);stroke-opacity:1;stroke-miterlimit:10;" d="M 59.976563 154.785156 L 55.699219 154.785156 L 55.878906 131.410156 L 57.304688 131.90625 L 58.910156 133.898438 L 59.800781 135.886719 L 60.515625 135.886719 L 60.871094 136.382813 L 61.761719 136.382813 L 63.1875 135.390625 L 63.902344 135.390625 L 65.148438 134.394531 L 66.578125 133.898438 L 66.753906 133.898438 L 67.289063 134.394531 L 68.003906 133.648438 L 68.894531 133.398438 L 69.785156 132.902344 L 71.214844 132.902344 L 74.066406 131.90625 L 74.246094 132.15625 L 79.238281 132.40625 L 79.058594 154.785156 Z M 59.976563 154.785156 "/>
<path style="fill-rule:nonzero;fill:rgb(0%,0%,0%);fill-opacity:1;stroke-width:1.062992;stroke-linecap:round;stroke-linejoin:round;stroke:rgb(49.803922%,49.803922%,49.803922%);stroke-opacity:1;stroke-miterlimit:10;" d="M 128.277344 110.519531 L 128.636719 109.523438 L 128.8125 108.53125 L 128.636719 97.339844 L 128.992188 97.339844 L 129.703125 95.597656 L 130.417969 94.601563 L 131.132813 93.855469 L 131.84375 93.359375 L 132.023438 100.570313 L 135.945313 100.570313 L 136.125 101.816406 L 136.125 104.300781 L 135.769531 104.800781 L 135.769531 106.789063 L 135.410156 107.535156 L 135.589844 111.015625 L 136.660156 111.265625 L 136.660156 117.980469 L 140.046875 117.980469 L 142.542969 120.46875 L 142.902344 121.460938 L 142.902344 127.679688 L 130.238281 127.679688 L 129.703125 125.441406 L 128.101563 123.453125 L 128.101563 121.960938 L 127.921875 121.214844 L 128.277344 119.96875 L 128.636719 117.980469 L 128.636719 116.984375 L 128.101563 115.742188 L 127.921875 114.746094 L 128.277344 113.503906 L 127.921875 112.011719 L 128.101563 111.265625 Z M 128.277344 110.519531 "/>
<path style="fill-rule:nonzero;fill:rgb(0%,0%,0%);fill-opacity:1;stroke-width:1.062992;stroke-linecap:round;stroke-linejoin:round;stroke:rgb(49.803922%,49.803922%,49.803922%);stroke-opacity:1;stroke-miterlimit:10;" d="M 55.878906 131.410156 L 55.699219 154.785156 L 34.121094 154.785156 L 33.765625 143.59375 L 35.902344 142.101563 L 40.539063 139.367188 L 44.109375 136.382813 L 45 135.390625 L 45.710938 134.394531 L 46.78125 133.648438 L 47.675781 133.398438 L 48.742188 132.652344 L 51.0625 131.410156 L 52.667969 130.664063 L 53.738281 129.917969 L 54.449219 130.414063 L 54.628906 130.914063 Z M 55.878906 131.410156 "/>
<path style="fill-rule:nonzero;fill:rgb(0%,0%,0%);fill-opacity:1;stroke-width:1.062992;stroke-linecap:round;stroke-linejoin:round;stroke:rgb(49.803922%,49.803922%,49.803922%);stroke-opacity:1;stroke-miterlimit:10;" d="M 121.859375 155.035156 L 120.789063 155.035156 L 120.96875 142.847656 L 120.96875 142.351563 L 124.890625 142.101563 L 127.921875 142.101563 L 127.921875 144.09375 L 129.527344 144.09375 L 129.527344 144.339844 L 130.238281 144.589844 L 130.773438 144.839844 L 131.84375 144.09375 L 131.84375 142.351563 L 134.339844 142.601563 L 134.339844 148.070313 L 133.628906 148.070313 L 133.804688 153.292969 L 133.449219 154.785156 Z M 121.859375 155.035156 "/>
<path style="fill-rule:nonzero;fill:rgb(0%,0%,0%);fill-opacity:1;stroke-width:1.062992;stroke-linecap:round;stroke-linejoin:round;stroke:rgb(49.803922%,49.803922%,49.803922%);stroke-opacity:1;stroke-miterlimit:10;" d="M 173.039063 122.207031 L 172.148438 125.441406 L 171.96875 125.9375 L 171.96875 127.929688 L 171.789063 128.921875 L 171.253906 130.167969 L 170.007813 131.90625 L 169.652344 133.152344 L 169.828125 135.140625 L 170.183594 136.882813 L 169.652344 138.621094 L 169.652344 139.367188 L 169.292969 141.355469 L 169.117188 142.101563 L 169.117188 146.332031 L 162.339844 146.332031 L 162.160156 144.339844 L 156.097656 144.09375 L 155.382813 136.882813 L 154.671875 123.453125 L 168.757813 122.457031 L 168.9375 122.457031 Z M 173.039063 122.207031 "/>
<path style="fill-rule:nonzero;fill:rgb(0%,0%,0%);fill-opacity:1;stroke-width:1.062992;stroke-linecap:round;stroke-linejoin:round;stroke:rgb(49.803922%,49.803922%,49.803922%);stroke-opacity:1;stroke-miterlimit:10;" d="M 212.269531 24.722656 L 233.136719 24.222656 L 233.3125 26.214844 L 233.671875 27.207031 L 232.242188 30.441406 L 232.242188 31.933594 L 232.957031 33.175781 L 233.136719 34.171875 L 232.601563 38.398438 L 232.421875 41.632813 L 232.777344 43.371094 L 232.777344 44.367188 L 230.636719 44.617188 L 230.105469 44.863281 L 229.746094 45.113281 L 229.210938 46.605469 L 228.675781 46.855469 L 227.785156 47.101563 L 226.535156 47.351563 L 225.109375 48.347656 L 223.863281 48.59375 L 215.835938 49.09375 L 215.480469 43.371094 L 214.589844 43.125 L 214.054688 37.15625 L 213.519531 37.15625 Z M 212.269531 24.722656 "/>
<path style="fill-rule:nonzero;fill:rgb(0%,0%,0%);fill-opacity:1;stroke-width:1.062992;stroke-linecap:round;stroke-linejoin:round;stroke:rgb(49.803922%,49.803922%,49.803922%);stroke-opacity:1;stroke-miterlimit:10;" d="M 233.492188 132.652344 L 232.601563 135.140625 L 231.351563 140.859375 L 229.570313 147.324219 L 228.675781 150.808594 L 228.855469 152.796875 L 227.785156 152.796875 L 227.605469 155.78125 L 222.433594 154.785156 L 221.722656 154.539063 L 215.300781 151.054688 L 215.835938 149.066406 L 216.550781 147.324219 L 217.621094 146.082031 L 217.976563 144.339844 L 218.691406 143.59375 L 219.402344 143.097656 L 219.761719 141.855469 L 219.582031 140.113281 L 219.582031 138.621094 L 219.761719 136.882813 L 219.9375 134.644531 Z M 233.492188 132.652344 "/>
<path style="fill-rule:nonzero;fill:rgb(0%,0%,0%);fill-opacity:1;stroke-width:1.062992;stroke-linecap:round;stroke-linejoin:round;stroke:rgb(49.803922%,49.803922%,49.803922%);stroke-opacity:1;stroke-miterlimit:10;" d="M 155.382813 136.882813 L 147.003906 137.128906 L 143.257813 137.128906 L 142.902344 127.679688 L 142.902344 121.460938 L 154.3125 120.714844 L 154.671875 123.453125 Z M 155.382813 136.882813 "/>
<path style="fill-rule:nonzero;fill:rgb(0%,0%,0%);fill-opacity:1;stroke-width:1.062992;stroke-linecap:round;stroke-linejoin:round;stroke:rgb(49.803922%,49.803922%,49.803922%);stroke-opacity:1;stroke-miterlimit:10;" d="M 169.292969 141.355469 L 170.363281 140.859375 L 171.613281 140.859375 L 172.859375 140.363281 L 174.285156 139.617188 L 176.070313 138.621094 L 176.25 138.871094 L 177.675781 137.875 L 178.210938 138.125 L 178.746094 137.378906 L 178.746094 137.128906 L 180.351563 135.886719 L 181.597656 135.886719 L 181.777344 135.140625 L 182.132813 135.636719 L 182.667969 135.390625 L 183.382813 134.394531 L 184.09375 133.898438 L 184.273438 134.394531 L 187.304688 132.652344 L 189.089844 132.902344 L 189.621094 132.652344 L 191.050781 132.652344 L 194.082031 136.882813 L 198.894531 139.617188 L 199.609375 139.867188 L 196.578125 146.082031 L 198.894531 147.574219 L 197.46875 148.320313 L 196.757813 148.070313 L 195.507813 149.8125 L 188.910156 154.539063 L 177.320313 161.5 L 176.605469 161.253906 L 175 161.003906 L 174.464844 160.753906 L 173.753906 160.007813 L 173.21875 157.523438 L 172.324219 156.527344 L 171.078125 154.785156 L 169.652344 154.785156 L 169.292969 153.046875 L 169.117188 151.554688 L 169.117188 142.101563 Z M 169.292969 141.355469 "/>
<path style="fill-rule:nonzero;fill:rgb(0%,0%,0%);fill-opacity:1;stroke-width:1.062992;stroke-linecap:round;stroke-linejoin:round;stroke:rgb(49.803922%,49.803922%,49.803922%);stroke-opacity:1;stroke-miterlimit:10;" d="M 228.855469 152.796875 L 227.785156 168.960938 L 227.429688 175.179688 L 215.300781 177.167969 L 214.054688 179.65625 L 213.164063 177.914063 L 213.339844 176.421875 L 213.875 174.929688 L 214.054688 173.6875 L 214.410156 172.691406 L 214.765625 170.453125 L 215.125 167.46875 L 215.125 163.738281 L 214.945313 162 L 215.125 161.003906 L 214.234375 158.019531 L 214.589844 155.53125 L 215.125 152.546875 L 215.300781 151.054688 L 221.722656 154.539063 L 222.433594 154.785156 L 227.605469 155.78125 L 227.785156 152.796875 Z M 228.855469 152.796875 "/>
<path style="fill-rule:nonzero;fill:rgb(0%,0%,0%);fill-opacity:1;stroke-width:1.062992;stroke-linecap:round;stroke-linejoin:round;stroke:rgb(49.803922%,49.803922%,49.803922%);stroke-opacity:1;stroke-miterlimit:10;" d="M 55.878906 131.410156 L 54.628906 130.914063 L 54.449219 130.414063 L 53.738281 129.917969 L 54.449219 128.675781 L 55.878906 126.4375 L 56.234375 124.945313 L 56.945313 123.949219 L 57.839844 123.699219 L 60.515625 122.707031 L 61.582031 121.960938 L 62.117188 119.722656 L 61.226563 117.730469 L 60.691406 115.742188 L 60.691406 114 L 60.15625 113.253906 L 59.265625 113.007813 L 58.375 113.753906 L 58.195313 112.757813 L 57.125 111.761719 L 57.125 110.519531 L 57.304688 109.277344 L 56.769531 108.03125 L 59.621094 108.53125 L 60.871094 109.277344 L 61.226563 110.269531 L 62.296875 110.769531 L 63.011719 109.773438 L 63.902344 108.777344 L 65.507813 108.53125 L 66.042969 107.785156 L 68.183594 108.03125 L 68.894531 107.535156 L 70.144531 108.03125 L 71.214844 107.785156 L 72.285156 107.785156 L 72.816406 107.535156 L 74.421875 107.535156 L 74.421875 117.234375 L 73.351563 117.234375 L 73.351563 120.964844 L 74.066406 120.964844 L 74.066406 131.90625 L 71.214844 132.902344 L 69.785156 132.902344 L 68.894531 133.398438 L 68.003906 133.648438 L 67.289063 134.394531 L 66.753906 133.898438 L 66.578125 133.898438 L 65.148438 134.394531 L 63.902344 135.390625 L 63.1875 135.390625 L 61.761719 136.382813 L 60.871094 136.382813 L 60.515625 135.886719 L 59.800781 135.886719 L 58.910156 133.898438 L 57.304688 131.90625 Z M 55.878906 131.410156 "/>
<path style="fill-rule:nonzero;fill:rgb(0%,0%,0%);fill-opacity:1;stroke-width:1.062992;stroke-linecap:round;stroke-linejoin:round;stroke:rgb(49.803922%,49.803922%,49.803922%);stroke-opacity:1;stroke-miterlimit:10;" d="M 211.378906 79.183594 L 211.378906 77.941406 L 211.199219 77.195313 L 210.488281 76.699219 L 209.417969 76.699219 L 208.882813 75.953125 L 208.347656 75.703125 L 207.632813 75.703125 L 206.921875 75.953125 L 206.386719 76.199219 L 202.820313 71.226563 L 205.316406 69.238281 L 204.425781 63.019531 L 210.488281 62.023438 L 209.0625 50.335938 L 215.835938 49.09375 L 223.863281 48.59375 L 225.109375 48.347656 L 226.535156 47.351563 L 227.785156 47.101563 L 228.675781 46.855469 L 229.210938 46.605469 L 229.746094 45.113281 L 230.105469 44.863281 L 230.636719 44.617188 L 232.777344 44.367188 L 233.492188 45.859375 L 234.027344 47.601563 L 234.382813 49.839844 L 234.203125 52.324219 L 234.203125 56.304688 L 233.671875 58.046875 L 232.066406 59.785156 L 231.53125 60.78125 L 231.351563 62.273438 L 230.28125 65.257813 L 231.171875 67.746094 L 231.171875 69.484375 L 231.53125 70.976563 L 232.066406 72.71875 L 232.242188 74.460938 L 232.242188 76.199219 L 230.460938 76.699219 Z M 211.378906 79.183594 "/>
<path style="fill-rule:nonzero;fill:rgb(0%,0%,0%);fill-opacity:1;stroke-width:1.062992;stroke-linecap:round;stroke-linejoin:round;stroke:rgb(49.803922%,49.803922%,49.803922%);stroke-opacity:1;stroke-miterlimit:10;" d="M 215.835938 49.09375 L 209.0625 50.335938 L 210.488281 62.023438 L 204.425781 63.019531 L 196.222656 63.765625 L 196.042969 61.777344 L 196.757813 61.277344 L 193.191406 26.710938 L 190.871094 26.710938 L 190.691406 24.96875 L 193.726563 24.722656 L 197.46875 24.96875 L 201.214844 24.96875 L 206.742188 24.722656 L 212.269531 24.722656 L 213.519531 37.15625 L 214.054688 37.15625 L 214.589844 43.125 L 215.480469 43.371094 Z M 215.835938 49.09375 "/>
<path style="fill-rule:nonzero;fill:rgb(0%,0%,0%);fill-opacity:1;stroke-width:1.062992;stroke-linecap:round;stroke-linejoin:round;stroke:rgb(49.803922%,49.803922%,49.803922%);stroke-opacity:1;stroke-miterlimit:10;" d="M 189.265625 109.523438 L 189.265625 107.039063 L 189.621094 106.292969 L 190.515625 105.792969 L 190.691406 105.296875 L 190.691406 104.550781 L 191.226563 103.308594 L 190.871094 99.328125 L 196.222656 101.816406 L 202.820313 101.070313 L 203.355469 102.0625 L 206.207031 101.816406 L 206.207031 100.820313 L 208.703125 100.570313 L 210.308594 112.261719 L 196.042969 112.261719 Z M 189.265625 109.523438 "/>
<path style="fill-rule:nonzero;fill:rgb(0%,0%,0%);fill-opacity:1;stroke-width:1.062992;stroke-linecap:round;stroke-linejoin:round;stroke:rgb(49.803922%,49.803922%,49.803922%);stroke-opacity:1;stroke-miterlimit:10;" d="M 74.421875 105.792969 L 85.121094 105.792969 L 85.300781 106.042969 L 88.332031 106.042969 L 91.363281 106.292969 L 90.117188 110.023438 L 91.363281 110.269531 L 91.363281 112.261719 L 91.1875 114 L 90.652344 114.25 L 90.472656 115.742188 L 89.9375 115.992188 L 89.9375 117.484375 L 86.726563 117.484375 L 86.550781 117.234375 L 74.421875 117.234375 Z M 74.421875 105.792969 "/>
<path style="fill-rule:nonzero;fill:rgb(0%,0%,0%);fill-opacity:1;stroke-width:1.062992;stroke-linecap:round;stroke-linejoin:round;stroke:rgb(49.803922%,49.803922%,49.803922%);stroke-opacity:1;stroke-miterlimit:10;" d="M 205.316406 137.128906 L 219.9375 134.644531 L 219.761719 136.882813 L 219.582031 138.621094 L 219.582031 140.113281 L 219.761719 141.855469 L 219.402344 143.097656 L 218.691406 143.59375 L 217.976563 144.339844 L 217.621094 146.082031 L 216.550781 147.324219 L 215.835938 149.066406 L 213.339844 147.324219 L 212.804688 147.574219 L 212.628906 147.574219 L 212.09375 147.324219 L 210.84375 150.558594 L 203.53125 149.8125 L 198.894531 147.574219 L 196.578125 146.082031 L 199.609375 139.867188 L 198.894531 139.617188 L 201.035156 138.371094 L 201.929688 138.621094 L 202.640625 139.367188 L 205.316406 139.367188 L 205.671875 138.621094 Z M 205.316406 137.128906 "/>
<path style="fill-rule:nonzero;fill:rgb(0%,0%,0%);fill-opacity:1;stroke-width:1.062992;stroke-linecap:round;stroke-linejoin:round;stroke:rgb(49.803922%,49.803922%,49.803922%);stroke-opacity:1;stroke-miterlimit:10;" d="M 204.425781 63.019531 L 205.316406 69.238281 L 202.820313 71.226563 L 206.386719 76.199219 L 206.921875 75.953125 L 207.632813 75.703125 L 208.347656 75.703125 L 208.882813 75.953125 L 209.417969 76.699219 L 210.488281 76.699219 L 211.199219 77.195313 L 211.378906 77.941406 L 211.378906 79.183594 L 206.386719 79.929688 L 208.167969 95.347656 L 208.703125 100.570313 L 206.207031 100.820313 L 206.207031 101.816406 L 203.355469 102.0625 L 202.820313 101.070313 L 196.222656 101.816406 L 190.871094 99.328125 L 186.054688 96.839844 L 188.910156 89.878906 L 186.414063 65.257813 L 196.222656 63.765625 Z M 204.425781 63.019531 "/>
<path style="fill-rule:nonzero;fill:rgb(0%,0%,0%);fill-opacity:1;stroke-width:1.062992;stroke-linecap:round;stroke-linejoin:round;stroke:rgb(49.803922%,49.803922%,49.803922%);stroke-opacity:1;stroke-miterlimit:10;" d="M 175.179688 116.984375 L 175.355469 116.488281 L 174.820313 109.277344 L 179.457031 101.816406 L 177.140625 100.570313 L 176.960938 100.074219 L 177.140625 99.578125 L 177.675781 98.332031 L 178.03125 97.835938 L 179.28125 96.839844 L 178.386719 84.902344 L 176.785156 64.261719 L 179.457031 66.003906 L 186.414063 65.257813 L 188.910156 89.878906 L 186.054688 96.839844 L 190.871094 99.328125 L 191.226563 103.308594 L 190.691406 104.550781 L 190.691406 105.296875 L 190.515625 105.792969 L 189.621094 106.292969 L 189.265625 107.039063 L 189.265625 109.523438 L 189.621094 110.269531 L 189.980469 111.015625 L 189.265625 117.484375 L 185.34375 115.992188 L 185.34375 118.476563 L 184.453125 118.976563 L 178.386719 115.742188 L 177.320313 117.484375 L 175.179688 117.484375 Z M 175.179688 116.984375 "/>
<path style="fill-rule:nonzero;fill:rgb(0%,0%,0%);fill-opacity:1;stroke-width:1.062992;stroke-linecap:round;stroke-linejoin:round;stroke:rgb(49.803922%,49.803922%,49.803922%);stroke-opacity:1;stroke-miterlimit:10;" d="M 168.222656 58.792969 L 165.191406 63.765625 L 166.796875 64.761719 L 166.441406 65.753906 L 166.617188 67.746094 L 165.371094 67.746094 L 165.546875 69.238281 L 164.480469 70.230469 L 163.230469 69.238281 L 158.773438 73.464844 L 155.917969 73.464844 L 155.917969 77.195313 L 157.703125 77.195313 L 158.058594 81.671875 L 150.210938 80.925781 L 150.210938 82.417969 L 144.328125 81.921875 L 143.613281 79.929688 L 143.4375 78.191406 L 142.1875 76.199219 L 141.472656 75.207031 L 141.652344 74.210938 L 142.367188 73.464844 L 142.902344 73.464844 L 143.792969 74.210938 L 144.507813 74.210938 L 145.933594 72.222656 L 146.109375 70.480469 L 144.328125 69.238281 L 146.289063 67.496094 L 145.933594 67.246094 L 145.042969 67 L 144.507813 66.253906 L 143.972656 65.753906 L 143.257813 66.003906 L 142.902344 66.75 L 142.722656 67 L 143.613281 67.746094 L 143.4375 69.238281 L 142.722656 69.984375 L 141.652344 69.484375 L 141.472656 67.992188 L 140.941406 65.753906 L 139.335938 64.511719 L 139.511719 63.269531 L 140.226563 62.523438 L 141.296875 61.777344 L 146.109375 59.289063 L 149.675781 57.050781 L 151.640625 55.308594 L 153.246094 53.570313 L 156.453125 51.082031 Z M 168.222656 58.792969 "/>
<path style="fill-rule:nonzero;fill:rgb(0%,0%,0%);fill-opacity:1;stroke-width:1.062992;stroke-linecap:round;stroke-linejoin:round;stroke:rgb(49.803922%,49.803922%,49.803922%);stroke-opacity:1;stroke-miterlimit:10;" d="M 217.441406 214.222656 L 216.550781 214.722656 L 215.660156 215.21875 L 214.945313 216.460938 L 214.589844 217.207031 L 213.164063 216.460938 L 213.164063 215.46875 L 212.984375 214.722656 L 212.628906 213.726563 L 212.449219 212.980469 L 212.804688 212.484375 L 213.519531 212.234375 L 214.234375 211.488281 L 214.945313 210.492188 L 215.300781 210.992188 L 215.125 211.488281 L 215.660156 212.234375 L 216.550781 212.484375 L 216.90625 213.230469 Z M 217.441406 214.222656 "/>
<path style="fill-rule:nonzero;fill:rgb(0%,0%,0%);fill-opacity:1;stroke-width:1.062992;stroke-linecap:round;stroke-linejoin:round;stroke:rgb(49.803922%,49.803922%,49.803922%);stroke-opacity:1;stroke-miterlimit:10;" d="M 158.59375 91.121094 L 158.058594 81.671875 L 157.703125 77.195313 L 155.917969 77.195313 L 155.917969 73.464844 L 158.773438 73.464844 L 163.230469 69.238281 L 164.480469 70.230469 L 165.546875 69.238281 L 165.371094 67.746094 L 166.617188 67.746094 L 166.441406 65.753906 L 166.796875 64.761719 L 165.191406 63.765625 L 168.222656 58.792969 L 176.785156 64.261719 L 178.386719 84.902344 L 165.191406 93.359375 Z M 158.59375 91.121094 "/>
<path style="fill-rule:nonzero;fill:rgb(0%,0%,0%);fill-opacity:1;stroke-width:1.062992;stroke-linecap:round;stroke-linejoin:round;stroke:rgb(49.803922%,49.803922%,49.803922%);stroke-opacity:1;stroke-miterlimit:10;" d="M 87.085938 132.40625 L 86.90625 131.90625 L 87.261719 130.914063 L 88.152344 129.421875 L 88.152344 128.921875 L 89.757813 125.9375 L 89.9375 117.484375 L 89.9375 115.992188 L 90.472656 115.742188 L 90.652344 114.25 L 91.1875 114 L 91.363281 112.261719 L 96.535156 112.261719 L 96.535156 112.757813 L 96.890625 113.253906 L 96.179688 114.5 L 99.390625 114.5 L 99.566406 114.25 L 101.527344 114.25 L 102.421875 116.488281 L 102.597656 117.980469 L 101.527344 118.230469 L 101.351563 121.460938 L 100.992188 121.960938 L 101.351563 125.691406 L 104.5625 125.9375 L 104.5625 129.667969 L 99.210938 129.917969 L 99.03125 131.90625 L 97.25 131.90625 L 97.070313 134.644531 L 93.503906 134.644531 L 93.503906 132.652344 L 87.261719 132.652344 Z M 87.085938 132.40625 "/>
<path style="fill-rule:nonzero;fill:rgb(0%,0%,0%);fill-opacity:1;stroke-width:1.062992;stroke-linecap:round;stroke-linejoin:round;stroke:rgb(49.803922%,49.803922%,49.803922%);stroke-opacity:1;stroke-miterlimit:10;" d="M 154.3125 120.714844 L 153.777344 108.53125 L 153.601563 107.785156 L 153.246094 107.785156 L 151.640625 107.535156 L 151.996094 106.292969 L 152.175781 105.546875 L 151.640625 105.046875 L 151.640625 104.300781 L 150.925781 103.554688 L 151.640625 103.554688 L 152.886719 103.804688 L 153.066406 104.550781 L 154.492188 104.800781 L 155.027344 104.800781 L 155.917969 104.550781 L 157.523438 104.300781 L 158.773438 104.550781 L 160.378906 105.792969 L 161.804688 106.789063 L 162.160156 108.28125 L 162.695313 108.53125 L 162.875 109.773438 L 164.65625 110.023438 L 165.191406 114.25 L 168.402344 114.25 L 168.582031 117.234375 L 174.464844 117.234375 L 174.464844 118.726563 L 174.285156 119.472656 L 173.574219 120.964844 L 173.039063 122.207031 L 168.9375 122.457031 L 168.757813 122.457031 L 154.671875 123.453125 Z M 154.3125 120.714844 "/>
<path style="fill-rule:nonzero;fill:rgb(0%,0%,0%);fill-opacity:1;stroke-width:1.062992;stroke-linecap:round;stroke-linejoin:round;stroke:rgb(49.803922%,49.803922%,49.803922%);stroke-opacity:1;stroke-miterlimit:10;" d="M 108.304688 99.328125 L 108.128906 110.023438 L 104.738281 110.269531 L 104.5625 114.25 L 99.566406 114.25 L 99.390625 114.5 L 96.179688 114.5 L 96.890625 113.253906 L 96.535156 112.757813 L 96.535156 112.261719 L 91.363281 112.261719 L 91.363281 110.269531 L 90.117188 110.023438 L 91.363281 106.292969 L 88.332031 106.042969 L 88.511719 95.847656 L 90.652344 96.09375 L 94.574219 96.839844 L 96.359375 97.089844 L 98.496094 98.832031 L 100.101563 100.324219 L 101.351563 100.820313 L 102.597656 100.820313 L 103.132813 101.816406 L 103.847656 100.820313 L 104.738281 100.074219 L 106.878906 99.328125 Z M 108.304688 99.328125 "/>
<path style="fill-rule:nonzero;fill:rgb(0%,0%,0%);fill-opacity:1;stroke-width:1.062992;stroke-linecap:round;stroke-linejoin:round;stroke:rgb(49.803922%,49.803922%,49.803922%);stroke-opacity:1;stroke-miterlimit:10;" d="M 205.496094 120.21875 L 204.601563 120.714844 L 198.894531 121.460938 L 196.042969 119.722656 L 192.832031 118.976563 L 189.265625 117.484375 L 189.980469 111.015625 L 189.621094 110.269531 L 189.265625 109.523438 L 196.042969 112.261719 L 210.308594 112.261719 L 210.488281 113.503906 Z M 205.496094 120.21875 "/>
<path style="fill-rule:nonzero;fill:rgb(0%,0%,0%);fill-opacity:1;stroke-width:1.062992;stroke-linecap:round;stroke-linejoin:round;stroke:rgb(49.803922%,49.803922%,49.803922%);stroke-opacity:1;stroke-miterlimit:10;" d="M 222.078125 216.710938 L 221.1875 215.21875 L 221.542969 214.722656 L 221.902344 213.726563 L 222.078125 212.980469 L 221.722656 210.742188 L 221.902344 210.492188 L 222.257813 210.246094 L 222.257813 209.746094 L 221.722656 208.753906 L 220.652344 208.007813 L 220.832031 207.011719 L 221.542969 207.011719 L 221.902344 206.761719 L 221.902344 205.519531 L 222.433594 205.023438 L 223.148438 205.269531 L 223.683594 206.265625 L 223.863281 206.015625 L 223.863281 205.519531 L 223.683594 204.773438 L 224.753906 203.53125 L 226.894531 202.285156 L 227.785156 202.535156 L 228.5 203.777344 L 229.390625 203.03125 L 230.636719 208.253906 L 231.886719 213.476563 L 229.925781 213.976563 L 228.855469 213.726563 L 227.605469 214.222656 L 224.039063 215.21875 L 222.96875 215.21875 Z M 222.078125 216.710938 "/>
<path style="fill-rule:nonzero;fill:rgb(0%,0%,0%);fill-opacity:1;stroke-width:1.062992;stroke-linecap:round;stroke-linejoin:round;stroke:rgb(49.803922%,49.803922%,49.803922%);stroke-opacity:1;stroke-miterlimit:10;" d="M 215.480469 206.761719 L 215.300781 207.507813 L 214.765625 208.007813 L 214.410156 209 L 214.234375 209.746094 L 214.054688 210.246094 L 213.164063 210.742188 L 212.628906 210.992188 L 212.449219 210.492188 L 213.164063 208.503906 L 214.054688 207.261719 L 214.765625 205.519531 L 215.300781 205.269531 L 215.480469 205.519531 L 215.300781 206.015625 Z M 215.480469 206.761719 "/>
<path style="fill-rule:nonzero;fill:rgb(0%,0%,0%);fill-opacity:1;stroke-width:1.062992;stroke-linecap:round;stroke-linejoin:round;stroke:rgb(49.803922%,49.803922%,49.803922%);stroke-opacity:1;stroke-miterlimit:10;" d="M 74.421875 95.847656 L 74.421875 107.535156 L 72.816406 107.535156 L 72.285156 107.785156 L 71.214844 107.785156 L 70.144531 108.03125 L 68.894531 107.535156 L 68.183594 108.03125 L 66.042969 107.785156 L 65.507813 108.53125 L 63.902344 108.777344 L 63.011719 109.773438 L 62.296875 110.769531 L 61.226563 110.269531 L 60.871094 109.277344 L 59.621094 108.53125 L 56.769531 108.03125 L 55.878906 107.535156 L 55.878906 106.789063 L 56.410156 105.792969 L 57.125 105.046875 L 57.125 100.820313 L 57.304688 99.328125 L 58.550781 98.832031 L 62.476563 98.085938 L 67.824219 96.839844 L 72.460938 95.847656 Z M 74.421875 95.847656 "/>
<path style="fill-rule:nonzero;fill:rgb(0%,0%,0%);fill-opacity:1;stroke-width:1.062992;stroke-linecap:round;stroke-linejoin:round;stroke:rgb(49.803922%,49.803922%,49.803922%);stroke-opacity:1;stroke-miterlimit:10;" d="M 174.464844 117.234375 L 168.582031 117.234375 L 168.402344 114.25 L 165.191406 114.25 L 164.65625 110.023438 L 162.875 109.773438 L 162.695313 108.53125 L 162.160156 108.28125 L 161.804688 106.789063 L 160.378906 105.792969 L 158.773438 104.550781 L 157.523438 104.300781 L 155.917969 104.550781 L 155.027344 104.800781 L 154.492188 104.800781 L 155.027344 97.835938 L 154.492188 97.585938 L 156.453125 90.625 L 158.59375 91.121094 L 165.191406 93.359375 L 178.386719 84.902344 L 179.28125 96.839844 L 178.03125 97.835938 L 177.675781 98.332031 L 177.140625 99.578125 L 176.960938 100.074219 L 177.140625 100.570313 L 179.457031 101.816406 L 174.820313 109.277344 L 175.355469 116.488281 L 175.179688 116.984375 L 174.644531 116.984375 Z M 174.464844 117.234375 "/>
<path style="fill-rule:nonzero;fill:rgb(0%,0%,0%);fill-opacity:1;stroke-width:1.062992;stroke-linecap:round;stroke-linejoin:round;stroke:rgb(49.803922%,49.803922%,49.803922%);stroke-opacity:1;stroke-miterlimit:10;" d="M 136.125 101.816406 L 141.296875 101.816406 L 142.007813 102.0625 L 142.1875 102.808594 L 142.902344 102.0625 L 142.902344 101.316406 L 144.328125 102.3125 L 144.683594 102.3125 L 144.863281 101.316406 L 144.863281 100.074219 L 145.042969 99.824219 L 145.578125 100.074219 L 146.46875 101.070313 L 147.894531 102.0625 L 148.25 102.808594 L 149.320313 102.808594 L 149.855469 103.308594 L 150.925781 103.554688 L 151.640625 104.300781 L 151.640625 105.046875 L 152.175781 105.546875 L 151.996094 106.292969 L 151.640625 107.535156 L 153.246094 107.785156 L 153.601563 107.785156 L 153.777344 108.53125 L 154.3125 120.714844 L 142.902344 121.460938 L 142.542969 120.46875 L 140.046875 117.980469 L 136.660156 117.980469 L 136.660156 111.265625 L 135.589844 111.015625 L 135.410156 107.535156 L 135.769531 106.789063 L 135.769531 104.800781 L 136.125 104.300781 Z M 136.125 101.816406 "/>
<path style="fill-rule:nonzero;fill:rgb(0%,0%,0%);fill-opacity:1;stroke-width:1.062992;stroke-linecap:round;stroke-linejoin:round;stroke:rgb(49.803922%,49.803922%,49.803922%);stroke-opacity:1;stroke-miterlimit:10;" d="M 120.433594 121.960938 L 109.730469 121.960938 L 109.730469 122.707031 L 109.019531 123.949219 L 108.839844 125.441406 L 108.664063 125.691406 L 108.484375 129.667969 L 104.5625 129.667969 L 104.5625 125.9375 L 101.351563 125.691406 L 100.992188 121.960938 L 101.351563 121.460938 L 101.527344 118.230469 L 102.597656 117.980469 L 102.421875 116.488281 L 101.527344 114.25 L 104.5625 114.25 L 104.738281 110.269531 L 108.128906 110.023438 L 112.230469 110.023438 L 112.230469 109.773438 L 115.617188 109.773438 L 115.617188 111.015625 L 121.144531 110.769531 L 121.144531 116.238281 L 120.96875 116.984375 L 120.609375 117.234375 L 120.609375 118.476563 L 120.074219 119.722656 L 120.074219 120.21875 Z M 120.433594 121.960938 "/>
<path style="fill-rule:nonzero;fill:rgb(0%,0%,0%);fill-opacity:1;stroke-width:1.062992;stroke-linecap:round;stroke-linejoin:round;stroke:rgb(49.803922%,49.803922%,49.803922%);stroke-opacity:1;stroke-miterlimit:10;" d="M 189.445313 179.65625 L 189.621094 176.671875 L 198.359375 176.421875 L 199.253906 175.429688 L 199.789063 174.433594 L 201.570313 172.691406 L 202.640625 172.195313 L 204.246094 171.199219 L 205.496094 170.703125 L 205.671875 172.195313 L 209.417969 173.191406 L 209.417969 171.945313 L 210.488281 172.195313 L 210.664063 172.445313 L 211.199219 171.945313 L 211.734375 172.445313 L 211.558594 173.191406 L 214.410156 172.691406 L 214.054688 173.6875 L 213.875 174.929688 L 213.339844 176.421875 L 213.164063 177.914063 L 214.054688 179.65625 L 214.410156 180.152344 L 214.765625 180.898438 L 214.589844 182.390625 L 214.234375 184.132813 L 205.851563 192.089844 L 201.570313 189.605469 L 190.691406 182.390625 L 190.335938 181.398438 L 189.800781 180.402344 Z M 189.445313 179.65625 "/>
<path style="fill-rule:nonzero;fill:rgb(0%,0%,0%);fill-opacity:1;stroke-width:1.062992;stroke-linecap:round;stroke-linejoin:round;stroke:rgb(49.803922%,49.803922%,49.803922%);stroke-opacity:1;stroke-miterlimit:10;" d="M 88.511719 95.847656 L 88.332031 106.042969 L 85.300781 106.042969 L 85.121094 105.792969 L 74.421875 105.792969 L 74.421875 95.847656 L 80.484375 95.847656 L 82.269531 95.597656 L 82.984375 95.847656 L 85.835938 95.597656 Z M 88.511719 95.847656 "/>
<path style="fill-rule:nonzero;fill:rgb(0%,0%,0%);fill-opacity:1;stroke-width:1.062992;stroke-linecap:round;stroke-linejoin:round;stroke:rgb(49.803922%,49.803922%,49.803922%);stroke-opacity:1;stroke-miterlimit:10;" d="M 150.925781 103.554688 L 149.855469 103.308594 L 149.320313 102.808594 L 148.25 102.808594 L 147.894531 102.0625 L 146.46875 101.070313 L 145.578125 100.074219 L 145.042969 99.824219 L 144.863281 100.074219 L 144.863281 101.316406 L 144.683594 102.3125 L 144.328125 102.3125 L 142.902344 101.316406 L 142.902344 102.0625 L 142.1875 102.808594 L 142.007813 102.0625 L 141.296875 101.816406 L 136.125 101.816406 L 135.945313 100.570313 L 132.023438 100.570313 L 131.84375 93.359375 L 133.09375 92.117188 L 134.875 92.117188 L 135.234375 91.867188 L 135.589844 90.871094 L 135.945313 89.878906 L 137.015625 88.882813 L 138.441406 88.882813 L 140.226563 89.378906 L 142.1875 89.378906 L 142.902344 88.386719 L 143.792969 87.140625 L 143.972656 85.898438 L 144.148438 83.660156 L 144.328125 81.921875 L 150.210938 82.417969 L 150.210938 80.925781 L 158.058594 81.671875 L 158.59375 91.121094 L 156.453125 90.625 L 154.492188 97.585938 L 155.027344 97.835938 L 154.492188 104.800781 L 153.066406 104.550781 L 152.886719 103.804688 L 151.640625 103.554688 Z M 150.925781 103.554688 "/>
<path style="fill-rule:nonzero;fill:rgb(0%,0%,0%);fill-opacity:1;stroke-width:1.062992;stroke-linecap:round;stroke-linejoin:round;stroke:rgb(49.803922%,49.803922%,49.803922%);stroke-opacity:1;stroke-miterlimit:10;" d="M 189.265625 117.484375 L 192.832031 118.976563 L 192.476563 120.46875 L 192.476563 121.460938 L 193.546875 126.1875 L 193.546875 127.679688 L 191.050781 132.652344 L 189.621094 132.652344 L 189.089844 132.902344 L 187.304688 132.652344 L 184.273438 134.394531 L 184.09375 133.898438 L 183.382813 134.394531 L 182.667969 135.390625 L 182.132813 135.636719 L 181.777344 135.140625 L 181.597656 135.886719 L 180.351563 135.886719 L 178.746094 137.128906 L 178.746094 137.378906 L 178.210938 138.125 L 177.675781 137.875 L 176.25 138.871094 L 176.070313 138.621094 L 174.285156 139.617188 L 172.859375 140.363281 L 171.613281 140.859375 L 170.363281 140.859375 L 169.292969 141.355469 L 169.652344 139.367188 L 169.652344 138.621094 L 170.183594 136.882813 L 169.828125 135.140625 L 169.652344 133.152344 L 170.007813 131.90625 L 171.253906 130.167969 L 171.789063 128.921875 L 171.96875 127.929688 L 171.96875 125.9375 L 172.148438 125.441406 L 173.039063 122.207031 L 173.574219 120.964844 L 174.285156 119.472656 L 174.464844 118.726563 L 174.464844 117.234375 L 174.644531 116.984375 L 175.179688 116.984375 L 175.179688 117.484375 L 177.320313 117.484375 L 178.386719 115.742188 L 184.453125 118.976563 L 185.34375 118.476563 L 185.34375 115.992188 Z M 189.265625 117.484375 "/>
<path style="fill-rule:nonzero;fill:rgb(0%,0%,0%);fill-opacity:1;stroke-width:1.062992;stroke-linecap:round;stroke-linejoin:round;stroke:rgb(49.803922%,49.803922%,49.803922%);stroke-opacity:1;stroke-miterlimit:10;" d="M 227.429688 175.179688 L 227.070313 182.390625 L 214.234375 184.132813 L 214.589844 182.390625 L 214.765625 180.898438 L 214.410156 180.152344 L 214.054688 179.65625 L 215.300781 177.167969 Z M 227.429688 175.179688 "/>
<path style="fill-rule:nonzero;fill:rgb(0%,0%,0%);fill-opacity:1;stroke-width:1.062992;stroke-linecap:round;stroke-linejoin:round;stroke:rgb(49.803922%,49.803922%,49.803922%);stroke-opacity:1;stroke-miterlimit:10;" d="M 220.652344 208.007813 L 221.722656 208.753906 L 222.257813 209.746094 L 222.257813 210.246094 L 221.902344 210.492188 L 221.722656 210.742188 L 222.078125 212.980469 L 221.902344 213.726563 L 221.542969 214.722656 L 221.1875 215.21875 L 222.078125 216.710938 L 220.472656 217.207031 L 219.046875 217.207031 L 217.800781 217.707031 L 216.90625 217.953125 L 216.015625 217.707031 L 216.371094 217.207031 L 217.441406 216.710938 L 218.691406 216.214844 L 219.761719 215.964844 L 220.117188 215.21875 L 220.117188 214.722656 L 219.582031 213.976563 L 218.511719 214.222656 L 217.441406 214.222656 L 216.90625 213.230469 L 216.550781 212.484375 L 215.660156 212.234375 L 215.125 211.488281 L 215.300781 210.992188 L 214.945313 210.492188 L 216.015625 208.253906 L 216.730469 208.503906 L 217.441406 209 L 217.976563 208.753906 L 218.511719 208.007813 L 219.046875 207.011719 L 219.226563 207.757813 L 220.296875 208.253906 Z M 220.652344 208.007813 "/>
<path style="fill-rule:nonzero;fill:rgb(0%,0%,0%);fill-opacity:1;stroke-width:1.062992;stroke-linecap:round;stroke-linejoin:round;stroke:rgb(49.803922%,49.803922%,49.803922%);stroke-opacity:1;stroke-miterlimit:10;" d="M 233.492188 132.652344 L 219.9375 134.644531 L 220.296875 131.90625 L 220.652344 130.167969 L 220.832031 128.921875 L 220.652344 128.425781 L 221.1875 127.429688 L 221.367188 125.9375 L 221.902344 124.695313 L 223.328125 120.714844 L 223.503906 119.472656 L 223.503906 115.992188 L 224.039063 115.246094 L 224.398438 114.5 L 224.398438 114 L 230.28125 113.753906 L 230.816406 113.253906 L 231.351563 113.503906 L 232.066406 113.503906 L 232.421875 113.753906 L 235.632813 114 L 235.632813 115.992188 L 235.808594 118.476563 L 235.632813 119.472656 L 235.632813 122.707031 L 235.808594 124.445313 L 234.5625 128.921875 Z M 233.492188 132.652344 "/>
<path style="fill-rule:nonzero;fill:rgb(0%,0%,0%);fill-opacity:1;stroke-width:1.062992;stroke-linecap:round;stroke-linejoin:round;stroke:rgb(49.803922%,49.803922%,49.803922%);stroke-opacity:1;stroke-miterlimit:10;" d="M 207.992188 213.476563 L 208.703125 213.230469 L 210.308594 212.980469 L 211.378906 215.21875 L 210.664063 216.214844 L 209.238281 217.707031 L 208.167969 218.699219 L 207.457031 219.695313 L 206.027344 220.441406 L 204.601563 220.691406 L 204.066406 219.695313 L 204.246094 219.199219 L 205.136719 218.699219 L 205.671875 217.707031 L 206.027344 216.460938 L 206.386719 215.21875 L 206.921875 214.722656 L 207.632813 213.476563 Z M 207.992188 213.476563 "/>
<path style="fill-rule:nonzero;fill:rgb(0%,0%,0%);fill-opacity:1;stroke-width:1.062992;stroke-linecap:round;stroke-linejoin:round;stroke:rgb(49.803922%,49.803922%,49.803922%);stroke-opacity:1;stroke-miterlimit:10;" d="M 205.851563 192.089844 L 214.234375 184.132813 L 214.234375 184.878906 L 214.410156 185.625 L 214.589844 186.121094 L 214.410156 187.117188 L 214.410156 187.613281 L 214.589844 188.359375 L 216.015625 190.101563 L 216.550781 191.59375 L 216.550781 192.835938 L 216.371094 198.554688 L 207.277344 192.835938 Z M 205.851563 192.089844 "/>
<path style="fill-rule:nonzero;fill:rgb(0%,0%,0%);fill-opacity:1;stroke-width:1.062992;stroke-linecap:round;stroke-linejoin:round;stroke:rgb(49.803922%,49.803922%,49.803922%);stroke-opacity:1;stroke-miterlimit:10;" d="M 168.222656 58.792969 L 156.453125 51.082031 L 156.8125 50.085938 L 157.523438 48.59375 L 157.878906 47.351563 L 157.523438 46.605469 L 158.773438 44.617188 L 161.980469 41.878906 L 167.152344 36.90625 L 173.21875 30.9375 L 175.355469 29.941406 L 179.28125 27.707031 L 181.0625 26.960938 L 181.953125 25.964844 L 183.917969 25.21875 L 185.34375 24.96875 L 187.125 24.222656 L 188.019531 24.222656 L 190.160156 24.96875 L 190.691406 24.96875 L 190.871094 26.710938 L 193.191406 26.710938 L 196.757813 61.277344 L 196.042969 61.777344 L 196.222656 63.765625 L 186.414063 65.257813 L 179.457031 66.003906 L 176.785156 64.261719 Z M 168.222656 58.792969 "/>
<path style="fill-rule:nonzero;fill:rgb(0%,0%,0%);fill-opacity:1;stroke-width:1.062992;stroke-linecap:round;stroke-linejoin:round;stroke:rgb(49.803922%,49.803922%,49.803922%);stroke-opacity:1;stroke-miterlimit:10;" d="M 210.488281 113.503906 L 210.308594 112.261719 L 208.703125 100.570313 L 208.167969 95.347656 L 216.90625 94.355469 L 218.335938 98.582031 L 218.511719 98.832031 L 218.15625 100.324219 L 218.511719 100.570313 L 219.226563 100.570313 L 219.761719 101.070313 L 220.296875 101.316406 L 220.652344 101.070313 L 221.1875 99.578125 L 222.078125 99.328125 L 222.792969 99.328125 L 222.96875 99.824219 L 223.328125 99.824219 L 223.328125 99.328125 L 223.503906 98.582031 L 224.753906 98.332031 L 225.644531 98.582031 L 225.644531 99.328125 L 225.46875 100.074219 L 226.179688 102.3125 L 226.179688 106.292969 L 226.535156 107.285156 L 226.359375 108.777344 L 225.46875 111.265625 L 224.753906 112.507813 L 224.398438 114 L 224.398438 114.5 L 224.039063 115.246094 L 223.503906 115.992188 L 223.503906 119.472656 L 223.328125 120.714844 L 222.257813 120.714844 L 221.902344 119.722656 L 221.1875 119.472656 L 220.832031 119.472656 L 219.9375 120.46875 L 218.867188 120.964844 L 218.15625 119.472656 L 217.800781 119.472656 L 216.90625 118.726563 L 216.371094 117.730469 L 216.195313 116.984375 L 216.015625 115.246094 L 214.589844 115.992188 L 211.734375 113.503906 Z M 210.488281 113.503906 "/>
<path style="fill-rule:nonzero;fill:rgb(0%,0%,0%);fill-opacity:1;stroke-width:1.062992;stroke-linecap:round;stroke-linejoin:round;stroke:rgb(49.803922%,49.803922%,49.803922%);stroke-opacity:1;stroke-miterlimit:10;" d="M 210.488281 113.503906 L 211.734375 113.503906 L 214.589844 115.992188 L 216.015625 115.246094 L 216.195313 116.984375 L 216.371094 117.730469 L 216.90625 118.726563 L 217.800781 119.472656 L 218.15625 119.472656 L 218.867188 120.964844 L 207.8125 123.203125 L 207.457031 123.949219 L 207.277344 123.949219 L 205.671875 123.453125 L 205.671875 123.949219 L 203.53125 122.457031 L 204.601563 121.960938 L 205.136719 121.214844 L 205.496094 120.21875 Z M 210.488281 113.503906 "/>
<path style="fill-rule:nonzero;fill:rgb(0%,0%,0%);fill-opacity:1;stroke-width:1.062992;stroke-linecap:round;stroke-linejoin:round;stroke:rgb(49.803922%,49.803922%,49.803922%);stroke-opacity:1;stroke-miterlimit:10;" d="M 192.832031 118.976563 L 196.042969 119.722656 L 198.894531 121.460938 L 204.601563 120.714844 L 205.496094 120.21875 L 205.136719 121.214844 L 204.601563 121.960938 L 203.53125 122.457031 L 205.671875 123.949219 L 205.671875 123.453125 L 207.277344 123.949219 L 207.457031 123.949219 L 207.8125 123.203125 L 208.167969 124.445313 L 207.992188 125.691406 L 207.277344 127.929688 L 206.742188 129.421875 L 206.027344 130.414063 L 206.207031 132.902344 L 205.496094 134.644531 L 204.78125 136.882813 L 205.316406 137.128906 L 205.671875 138.621094 L 205.316406 139.367188 L 202.640625 139.367188 L 201.929688 138.621094 L 201.035156 138.371094 L 198.894531 139.617188 L 194.082031 136.882813 L 191.050781 132.652344 L 193.546875 127.679688 L 193.546875 126.1875 L 192.476563 121.460938 L 192.476563 120.46875 Z M 192.832031 118.976563 "/>
<path style="fill-rule:nonzero;fill:rgb(0%,0%,0%);fill-opacity:1;stroke-width:1.062992;stroke-linecap:round;stroke-linejoin:round;stroke:rgb(49.803922%,49.803922%,49.803922%);stroke-opacity:1;stroke-miterlimit:10;" d="M 122.75 131.410156 L 129.167969 130.914063 L 129.527344 136.882813 L 129.703125 137.628906 L 129.703125 139.367188 L 129.527344 142.351563 L 131.84375 142.351563 L 131.84375 144.09375 L 130.773438 144.839844 L 130.238281 144.589844 L 129.527344 144.339844 L 129.527344 144.09375 L 127.921875 144.09375 L 127.921875 142.101563 L 124.890625 142.101563 L 120.96875 142.351563 L 120.96875 142.847656 L 116.507813 142.847656 L 116.332031 133.648438 L 119.898438 133.648438 L 120.074219 134.644531 L 120.789063 134.644531 L 120.96875 134.890625 L 123.105469 134.644531 L 122.929688 132.15625 Z M 122.75 131.410156 "/>
<path style="fill-rule:nonzero;fill:rgb(0%,0%,0%);fill-opacity:1;stroke-width:1.062992;stroke-linecap:round;stroke-linejoin:round;stroke:rgb(49.803922%,49.803922%,49.803922%);stroke-opacity:1;stroke-miterlimit:10;" d="M 121.144531 110.769531 L 128.277344 110.519531 L 128.101563 111.265625 L 127.921875 112.011719 L 128.277344 113.503906 L 127.921875 114.746094 L 128.101563 115.742188 L 128.636719 116.984375 L 128.636719 117.980469 L 128.277344 119.96875 L 127.921875 121.214844 L 128.101563 121.960938 L 128.101563 123.453125 L 129.703125 125.441406 L 130.238281 127.679688 L 130.597656 128.675781 L 131.488281 129.917969 L 132.378906 130.914063 L 129.167969 130.914063 L 122.75 131.410156 L 121.859375 128.175781 L 121.859375 127.929688 L 122.035156 126.933594 L 122.035156 126.1875 L 121.324219 125.691406 L 120.789063 125.191406 L 120.433594 121.960938 L 120.074219 120.21875 L 120.074219 119.722656 L 120.609375 118.476563 L 120.609375 117.234375 L 120.96875 116.984375 L 121.144531 116.238281 Z M 121.144531 110.769531 "/>
<path style="fill-rule:nonzero;fill:rgb(0%,0%,0%);fill-opacity:1;stroke-width:1.062992;stroke-linecap:round;stroke-linejoin:round;stroke:rgb(49.803922%,49.803922%,49.803922%);stroke-opacity:1;stroke-miterlimit:10;" d="M 120.789063 155.035156 L 100.816406 154.785156 L 96.179688 154.785156 L 96.890625 136.882813 L 97.070313 136.882813 L 97.070313 134.644531 L 97.25 131.90625 L 99.03125 131.90625 L 99.210938 129.917969 L 104.5625 129.667969 L 108.484375 129.667969 L 115.261719 129.917969 L 115.261719 133.152344 L 116.152344 133.152344 L 116.332031 133.648438 L 116.507813 142.847656 L 120.96875 142.847656 Z M 120.789063 155.035156 "/>
<path style="fill-rule:nonzero;fill:rgb(0%,0%,0%);fill-opacity:1;stroke-width:1.062992;stroke-linecap:round;stroke-linejoin:round;stroke:rgb(49.803922%,49.803922%,49.803922%);stroke-opacity:1;stroke-miterlimit:10;" d="M 229.390625 203.03125 L 229.035156 202.039063 L 229.390625 201.292969 L 229.925781 201.042969 L 231.351563 202.285156 L 232.242188 202.285156 L 232.777344 201.292969 L 233.492188 201.292969 L 237.058594 202.285156 L 238.128906 202.039063 L 239.019531 201.539063 L 239.199219 200.046875 L 240.269531 199.550781 L 241.515625 200.296875 L 245.441406 200.296875 L 250.078125 199.800781 L 253.644531 199.550781 L 255.78125 198.804688 L 257.566406 197.808594 L 259.882813 195.820313 L 262.382813 193.582031 L 264.878906 192.089844 L 265.949219 191.59375 L 267.375 192.089844 L 267.195313 192.589844 L 266.484375 193.085938 L 264.878906 192.835938 L 264.34375 194.078125 L 263.273438 194.824219 L 262.382813 195.324219 L 262.558594 197.0625 L 261.488281 197.3125 L 260.777344 198.554688 L 259.882813 199.054688 L 258.992188 199.054688 L 258.457031 199.550781 L 257.921875 200.546875 L 257.210938 201.042969 L 255.78125 201.292969 L 255.78125 202.039063 L 256.316406 202.285156 L 257.746094 202.285156 L 258.636719 202.785156 L 258.8125 203.777344 L 258.28125 204.773438 L 259.707031 204.773438 L 260.953125 204.027344 L 260.0625 202.785156 L 261.3125 202.285156 L 261.847656 201.042969 L 262.558594 200.792969 L 263.09375 200.046875 L 263.273438 199.054688 L 263.808594 198.308594 L 264.699219 198.308594 L 265.054688 197.3125 L 265.769531 198.308594 L 266.660156 198.308594 L 267.195313 197.808594 L 267.910156 197.0625 L 268.800781 197.5625 L 269.335938 197.3125 L 269.871094 196.566406 L 270.40625 196.566406 L 270.941406 197.808594 L 272.367188 198.058594 L 274.152344 197.5625 L 275.21875 196.566406 L 276.113281 195.820313 L 277.71875 195.074219 L 278.964844 195.074219 L 279.320313 195.324219 L 279.144531 196.316406 L 278.609375 197.0625 L 274.683594 198.804688 L 271.832031 200.296875 L 267.910156 202.039063 L 264.699219 204.523438 L 258.28125 206.761719 L 249.898438 210.992188 L 242.765625 213.726563 L 239.199219 214.96875 L 237.949219 214.96875 L 237.414063 214.722656 L 237.59375 213.976563 L 239.019531 213.726563 L 240.089844 213.726563 L 245.976563 210.992188 L 251.679688 208.503906 L 254.535156 207.507813 L 255.070313 207.011719 L 255.070313 206.515625 L 254.355469 206.265625 L 251.679688 207.261719 L 250.433594 207.507813 L 249.542969 208.007813 L 247.9375 209 L 245.082031 209.746094 L 242.941406 209.746094 L 241.695313 210.492188 L 240.625 210.492188 L 239.554688 210.246094 L 239.375 210.992188 L 238.664063 211.488281 L 236.523438 211.238281 L 235.988281 212.234375 L 233.492188 212.234375 L 232.957031 212.980469 L 231.886719 213.476563 L 230.636719 208.253906 Z M 229.390625 203.03125 "/>
<path style="fill-rule:nonzero;fill:rgb(0%,0%,0%);fill-opacity:1;stroke-width:1.062992;stroke-linecap:round;stroke-linejoin:round;stroke:rgb(49.803922%,49.803922%,49.803922%);stroke-opacity:1;stroke-miterlimit:10;" d="M 189.445313 179.65625 L 186.589844 179.65625 L 185.34375 178.660156 L 184.09375 177.914063 L 182.847656 177.417969 L 182.132813 176.671875 L 181.777344 175.675781 L 180.886719 173.4375 L 180.171875 172.445313 L 179.992188 171.945313 L 180.171875 167.46875 L 180.527344 166.226563 L 179.816406 165.480469 L 178.566406 164.484375 L 178.566406 162.992188 L 178.210938 162.246094 L 177.320313 161.5 L 188.910156 154.539063 L 198.894531 160.507813 L 195.507813 165.976563 L 201.214844 170.703125 L 201.570313 172.691406 L 199.789063 174.433594 L 199.253906 175.429688 L 198.359375 176.421875 L 189.621094 176.671875 Z M 189.445313 179.65625 "/>
<path style="fill-rule:nonzero;fill:rgb(0%,0%,0%);fill-opacity:1;stroke-width:1.062992;stroke-linecap:round;stroke-linejoin:round;stroke:rgb(49.803922%,49.803922%,49.803922%);stroke-opacity:1;stroke-miterlimit:10;" d="M 147.003906 137.128906 L 147.003906 137.875 L 147.359375 137.875 L 147.359375 139.367188 L 147.714844 139.367188 L 147.894531 139.867188 L 147.359375 140.113281 L 147.539063 140.613281 L 147.714844 140.859375 L 147.894531 141.109375 L 148.074219 141.355469 L 148.25 142.101563 L 147.714844 142.101563 L 147.714844 142.351563 L 148.074219 142.601563 L 148.074219 142.847656 L 148.609375 143.097656 L 148.429688 143.84375 L 148.25 144.09375 L 148.609375 144.339844 L 148.609375 144.839844 L 148.785156 145.085938 L 148.785156 145.832031 L 148.429688 145.832031 L 148.25 146.828125 L 147.539063 146.828125 L 147.714844 150.808594 L 147.714844 154.785156 L 133.449219 154.785156 L 133.804688 153.292969 L 133.628906 148.070313 L 134.339844 148.070313 L 134.339844 142.601563 L 136.480469 142.601563 L 136.480469 143.347656 L 137.90625 143.347656 L 138.085938 140.859375 L 139.691406 141.109375 L 139.871094 141.109375 L 142.1875 141.355469 L 142.1875 141.855469 L 143.257813 142.101563 L 143.792969 139.367188 L 142.542969 138.371094 L 142.007813 138.371094 L 142.007813 137.128906 Z M 147.003906 137.128906 "/>
<path style="fill-rule:nonzero;fill:rgb(0%,0%,0%);fill-opacity:1;stroke-width:1.062992;stroke-linecap:round;stroke-linejoin:round;stroke:rgb(49.803922%,49.803922%,49.803922%);stroke-opacity:1;stroke-miterlimit:10;" d="M 129.167969 130.914063 L 132.378906 130.914063 L 131.488281 129.917969 L 130.597656 128.675781 L 130.238281 127.679688 L 142.902344 127.679688 L 143.257813 137.128906 L 142.007813 137.128906 L 142.007813 138.371094 L 142.542969 138.371094 L 143.792969 139.367188 L 143.257813 142.101563 L 142.1875 141.855469 L 142.1875 141.355469 L 139.871094 141.109375 L 139.691406 141.109375 L 138.085938 140.859375 L 137.90625 143.347656 L 136.480469 143.347656 L 136.480469 142.601563 L 134.339844 142.601563 L 131.84375 142.351563 L 129.527344 142.351563 L 129.703125 139.367188 L 129.703125 137.628906 L 129.527344 136.882813 Z M 129.167969 130.914063 "/>
<path style="fill-rule:nonzero;fill:rgb(0%,0%,0%);fill-opacity:1;stroke-width:1.062992;stroke-linecap:round;stroke-linejoin:round;stroke:rgb(49.803922%,49.803922%,49.803922%);stroke-opacity:1;stroke-miterlimit:10;" d="M 201.570313 172.691406 L 201.214844 170.703125 L 195.507813 165.976563 L 198.894531 160.507813 L 188.910156 154.539063 L 195.507813 149.8125 L 196.757813 148.070313 L 197.46875 148.320313 L 198.894531 147.574219 L 203.53125 149.8125 L 210.84375 150.558594 L 212.09375 147.324219 L 212.628906 147.574219 L 212.804688 147.574219 L 213.339844 147.324219 L 215.835938 149.066406 L 215.300781 151.054688 L 215.125 152.546875 L 214.589844 155.53125 L 214.234375 158.019531 L 215.125 161.003906 L 214.945313 162 L 215.125 163.738281 L 215.125 167.46875 L 214.765625 170.453125 L 214.410156 172.691406 L 211.558594 173.191406 L 211.734375 172.445313 L 211.199219 171.945313 L 210.664063 172.445313 L 210.488281 172.195313 L 209.417969 171.945313 L 209.417969 173.191406 L 205.671875 172.195313 L 205.496094 170.703125 L 204.246094 171.199219 L 202.640625 172.195313 Z M 201.570313 172.691406 "/>
<path style="fill-rule:nonzero;fill:rgb(0%,0%,0%);fill-opacity:1;stroke-width:1.062992;stroke-linecap:round;stroke-linejoin:round;stroke:rgb(49.803922%,49.803922%,49.803922%);stroke-opacity:1;stroke-miterlimit:10;" d="M 211.378906 79.183594 L 230.460938 76.699219 L 229.390625 77.941406 L 229.570313 78.4375 L 229.035156 80.675781 L 228.5 82.667969 L 227.070313 83.910156 L 226.714844 84.65625 L 226.179688 85.648438 L 225.644531 86.398438 L 224.753906 87.140625 L 224.398438 87.886719 L 224.21875 89.628906 L 224.753906 92.363281 L 225.109375 95.847656 L 225.289063 97.089844 L 225.644531 98.582031 L 224.753906 98.332031 L 223.503906 98.582031 L 223.328125 99.328125 L 223.328125 99.824219 L 222.96875 99.824219 L 222.792969 99.328125 L 222.078125 99.328125 L 221.1875 99.578125 L 220.652344 101.070313 L 220.296875 101.316406 L 219.761719 101.070313 L 219.226563 100.570313 L 218.511719 100.570313 L 218.15625 100.324219 L 218.511719 98.832031 L 218.335938 98.582031 L 216.90625 94.355469 L 208.167969 95.347656 L 206.386719 79.929688 Z M 211.378906 79.183594 "/>
<path style="fill-rule:nonzero;fill:rgb(0%,0%,0%);fill-opacity:1;stroke-width:1.062992;stroke-linecap:round;stroke-linejoin:round;stroke:rgb(49.803922%,49.803922%,49.803922%);stroke-opacity:1;stroke-miterlimit:10;" d="M 232.242188 76.199219 L 232.777344 77.195313 L 232.957031 77.941406 L 232.777344 79.183594 L 232.421875 80.179688 L 231.886719 81.671875 L 230.996094 83.164063 L 231.171875 86.398438 L 231.886719 86.894531 L 232.957031 84.902344 L 233.671875 84.40625 L 234.382813 84.65625 L 234.917969 85.152344 L 235.453125 86.148438 L 235.808594 86.894531 L 236.167969 87.390625 L 236.34375 87.886719 L 236.167969 90.375 L 236.34375 91.867188 L 236.34375 94.851563 L 235.988281 97.835938 L 235.632813 103.308594 L 235.808594 104.550781 L 235.988281 106.789063 L 235.808594 108.28125 L 235.632813 111.761719 L 235.632813 114 L 232.421875 113.753906 L 232.066406 113.503906 L 231.351563 113.503906 L 230.816406 113.253906 L 230.28125 113.753906 L 224.398438 114 L 224.753906 112.507813 L 225.46875 111.265625 L 226.359375 108.777344 L 226.535156 107.285156 L 226.179688 106.292969 L 226.179688 102.3125 L 225.46875 100.074219 L 225.644531 99.328125 L 225.644531 98.582031 L 225.289063 97.089844 L 225.109375 95.847656 L 224.753906 92.363281 L 224.21875 89.628906 L 224.398438 87.886719 L 224.753906 87.140625 L 225.644531 86.398438 L 226.179688 85.648438 L 226.714844 84.65625 L 227.070313 83.910156 L 228.5 82.667969 L 229.035156 80.675781 L 229.570313 78.4375 L 229.390625 77.941406 L 230.460938 76.699219 Z M 232.242188 76.199219 "/>
<path style="fill-rule:nonzero;fill:rgb(0%,0%,0%);fill-opacity:1;stroke-width:1.062992;stroke-linecap:round;stroke-linejoin:round;stroke:rgb(49.803922%,49.803922%,49.803922%);stroke-opacity:1;stroke-miterlimit:10;" d="M 108.128906 110.023438 L 108.304688 99.328125 L 110.089844 98.832031 L 113.296875 98.832031 L 117.042969 99.328125 L 119.71875 99.328125 L 120.609375 100.570313 L 121.679688 99.578125 L 121.859375 98.832031 L 122.570313 98.582031 L 124.890625 98.582031 L 125.601563 98.085938 L 127.742188 96.839844 L 128.636719 97.339844 L 128.8125 108.53125 L 128.636719 109.523438 L 128.277344 110.519531 L 121.144531 110.769531 L 115.617188 111.015625 L 115.617188 109.773438 L 112.230469 109.773438 L 112.230469 110.023438 Z M 108.128906 110.023438 "/>
<path style="fill-rule:nonzero;fill:rgb(0%,0%,0%);fill-opacity:1;stroke-width:1.062992;stroke-linecap:round;stroke-linejoin:round;stroke:rgb(49.803922%,49.803922%,49.803922%);stroke-opacity:1;stroke-miterlimit:10;" d="M 219.226563 203.28125 L 216.015625 202.285156 L 216.371094 198.554688 L 216.550781 192.835938 L 216.550781 191.59375 L 216.015625 190.101563 L 214.589844 188.359375 L 214.410156 187.613281 L 214.410156 187.117188 L 214.589844 186.121094 L 214.410156 185.625 L 214.234375 184.878906 L 214.234375 184.132813 L 227.070313 182.390625 L 226.894531 185.128906 L 228.855469 188.859375 L 227.605469 189.851563 L 221.902344 193.582031 L 223.503906 197.3125 L 222.96875 199.550781 L 222.613281 200.296875 L 221.902344 201.042969 L 221.1875 202.039063 L 220.652344 202.785156 Z M 219.226563 203.28125 "/>
<path style="fill-rule:nonzero;fill:rgb(0%,0%,0%);fill-opacity:1;stroke-width:1.062992;stroke-linecap:round;stroke-linejoin:round;stroke:rgb(49.803922%,49.803922%,49.803922%);stroke-opacity:1;stroke-miterlimit:10;" d="M 89.9375 117.484375 L 89.757813 125.9375 L 88.152344 128.921875 L 88.152344 129.421875 L 87.261719 130.914063 L 86.90625 131.90625 L 87.085938 132.40625 L 79.238281 132.40625 L 74.246094 132.15625 L 74.066406 131.90625 L 74.066406 120.964844 L 73.351563 120.964844 L 73.351563 117.234375 L 86.550781 117.234375 L 86.726563 117.484375 Z M 89.9375 117.484375 "/>
<path style="fill-rule:nonzero;fill:rgb(0%,0%,0%);fill-opacity:1;stroke-width:1.062992;stroke-linecap:round;stroke-linejoin:round;stroke:rgb(49.803922%,49.803922%,49.803922%);stroke-opacity:1;stroke-miterlimit:10;" d="M 108.484375 129.667969 L 108.664063 125.691406 L 108.839844 125.441406 L 109.019531 123.949219 L 109.730469 122.707031 L 109.730469 121.960938 L 120.433594 121.960938 L 120.789063 125.191406 L 121.324219 125.691406 L 122.035156 126.1875 L 122.035156 126.933594 L 121.859375 127.929688 L 121.859375 128.175781 L 122.75 131.410156 L 122.929688 132.15625 L 123.105469 134.644531 L 120.96875 134.890625 L 120.789063 134.644531 L 120.074219 134.644531 L 119.898438 133.648438 L 116.332031 133.648438 L 116.152344 133.152344 L 115.261719 133.152344 L 115.261719 129.917969 Z M 108.484375 129.667969 "/>
</g>
</g>
</svg>
